<?xml version="1.0" encoding="utf-8"?>
<!-- Generator: Adobe Illustrator 19.2.0, SVG Export Plug-In . SVG Version: 6.00 Build 0)  -->
<svg version="1.1" id="Layer_1" xmlns="http://www.w3.org/2000/svg" xmlns:xlink="http://www.w3.org/1999/xlink" x="0px" y="0px"
	 viewBox="0 0 612 792" style="enable-background:new 0 0 612 792;" xml:space="preserve">
<style type="text/css">
	.st0{opacity:0.5;fill:#2495D3;}
	.st1{opacity:0.8;fill:#596163;}
	.st2{opacity:0.9;fill:#596163;}
	.st3{fill:#FAFDFF;}
	.st4{opacity:0.5;fill:#0C0D0E;}
	.st5{font-family:'TwCenMT-CondensedExtraBold';}
	.st6{font-size:60px;}
	.st7{opacity:0.9;}
</style>
<path class="st0" d="M277,384.4c-4.7-4.2-11.7-5.7-17.8-5.2c1.6,5.2,2.5,9.4,3,14.2c0.4,3.2,0.6,6.6,0.7,10c0.3,0.3-0.1-0.2,0.6,0.5
	c5.3,4.8,12.4,6.7,19.3,6C286,400.8,284.1,390.8,277,384.4z"/>
<path class="st0" d="M192,375.2c-5.8-0.4-12.3,0.8-16.8,4.6c-7.3,6.1-9.6,16-6.8,25.2c6.6,1,13.2-0.4,18.6-4.5
	C187.5,391.3,189.1,382.6,192,375.2z"/>
<path class="st0" d="M262.3,405.3c0,28.4-11.1,51.4-37.1,51.4s-37.5-23-37.5-51.4c0-28.4,11.5-51.4,37.5-51.4
	S262.3,376.9,262.3,405.3z"/>
<path class="st1" d="M225.1,456.8c20.4,0,36-13.4,34.8-31.2H190C190,443.9,204.8,456.8,225.1,456.8z"/>
<path class="st2" d="M265.6,413.9c0.1-3.7,0.4-14.5,0.4-18.3c0-30.4-12.5-42.3-41.1-42.3s-40.9,7.1-40.9,42.3
	c0,5.4,19.4,20.1,29.7,19.3c0,0-4.2-14.7,0.5-7.8c9,13,29.3,7.4,29.3,7.4l-5.8-9.7c-0.2-0.4,0.3-1,0.6-0.7
	C244.8,411,265.6,413.9,265.6,413.9z"/>
<path class="st1" d="M203.1,360.4c-20.9-2.3-36.2-11.1-29.9-22.2c1.6-2.9,6.5-11.1,8.1-13.9c-11.6,6.6-23.5,19.9-23.5,30.9
	c0,13.6,13,25.1,31.2,29.3C191.8,374.4,196.4,366.1,203.1,360.4z M186.7,382.5L186.7,382.5L186.7,382.5c0,0,0,0.1,0,0.1
	C186.2,382.6,186.1,382.5,186.7,382.5z"/>
<path class="st1" d="M270.3,321.2c1.7,3,6.5,12,8.1,15.2c6.4,12.4-9.3,22.1-30.7,24.4c6.7,6.2,11.1,15.5,13.4,26.6
	c18.9-4.3,32.6-17.2,32.6-32.4C293.8,343,281.9,328.5,270.3,321.2z M265,385.1c0,0,0-0.1,0-0.1l0,0l0,0
	C265.6,385,265.5,385.1,265,385.1z"/>
<polygon class="st3" points="247.8,436.2 247.8,439 230.6,439 230.6,446.2 227.8,446.2 227.8,436.2 "/>
<polygon class="st3" points="200.8,436.2 200.8,439 217.9,439 217.9,446.2 220.8,446.2 220.8,436.2 "/>
<text transform="matrix(1 0 0 1 263.7755 454)"><tspan x="0" y="0" class="st4 st5 st6">FI    </tspan><tspan x="100.5" y="0" class="st0 st5 st6">TY</tspan></text>
<text transform="matrix(1 0 0 1 300.7497 454)" class="st7"><tspan x="0" y="0" class="st0 st5 st6">DU</tspan></text>
</svg>
