<svg id="Layer_1" data-name="Layer 1" xmlns="http://www.w3.org/2000/svg" viewBox="0 0 135.85 135.53"><defs><style>.cls-1{fill:#2495d3;opacity:0.5;}.cls-2,.cls-3{fill:#596163;}.cls-2{opacity:0.8;}.cls-3{opacity:0.9;}.cls-4{fill:#fafdff;}</style></defs><title>FidutyLogonowords</title><path class="cls-1" d="M277,384.4c-4.69-4.23-11.75-5.67-17.84-5.21a67.7,67.7,0,0,1,3,14.22q0.6,4.84.72,10a5.11,5.11,0,0,0,.6.48,24.51,24.51,0,0,0,19.32,6C286,400.81,284.1,390.76,277,384.4Z" transform="translate(-157.92 -321.24)"/><path class="cls-1" d="M192,375.22c-5.78-.42-12.27.85-16.79,4.62-7.3,6.08-9.64,16-6.8,25.19a24.61,24.61,0,0,0,18.63-4.49A78.58,78.58,0,0,1,192,375.22Z" transform="translate(-157.92 -321.24)"/><path class="cls-1" d="M262.27,405.33c0,28.41-11.14,51.44-37.07,51.44s-37.45-23-37.45-51.44,11.52-51.44,37.45-51.44S262.27,376.92,262.27,405.33Z" transform="translate(-157.92 -321.24)"/><path class="cls-2" d="M225.14,456.78c20.37,0,36-13.4,34.8-31.23H190C190,443.93,204.78,456.78,225.14,456.78Z" transform="translate(-157.92 -321.24)"/><path class="cls-3" d="M265.63,413.92c0.07-3.66.37-14.53,0.37-18.31,0-30.38-12.54-42.33-41.07-42.33S184,360.4,184,395.61c0,5.43,19.44,20.12,29.67,19.31,0,0-4.25-14.7.5-7.83,9,13,29.28,7.4,29.28,7.4l-5.81-9.72c-0.18-.42.34-1,0.65-0.71C244.85,411,265.63,413.92,265.63,413.92Z" transform="translate(-157.92 -321.24)"/><path class="cls-2" d="M203.1,360.37c-20.93-2.3-36.21-11.08-29.86-22.24,1.64-2.88,6.47-11.11,8.13-13.87-11.55,6.64-23.45,19.87-23.45,30.89,0,13.55,13,25.06,31.17,29.27C191.75,374.43,196.36,366.05,203.1,360.37Zm-16.36,22.12h0l0,0.12C186.22,382.58,186.09,382.55,186.75,382.49Z" transform="translate(-157.92 -321.24)"/><path class="cls-2" d="M270.32,321.24c1.65,3,6.49,12,8.13,15.18,6.44,12.37-9.32,22.08-30.68,24.44,6.67,6.18,11.08,15.49,13.44,26.57,18.86-4.31,32.56-17.17,32.56-32.38C293.77,343,281.87,328.51,270.32,321.24ZM265,385.11l0-.13h0C265.61,385,265.48,385.09,265,385.11Z" transform="translate(-157.92 -321.24)"/><polygon class="cls-4" points="89.85 114.92 89.85 117.72 72.71 117.72 72.71 124.92 69.85 124.92 69.85 114.92 89.85 114.92"/><polygon class="cls-4" points="42.84 114.92 42.84 117.72 59.98 117.72 59.98 124.92 62.84 124.92 62.84 114.92 42.84 114.92"/></svg>