<?xml version="1.0" encoding="utf-8"?>
<!-- Generator: Adobe Illustrator 19.2.0, SVG Export Plug-In . SVG Version: 6.00 Build 0)  -->
<svg version="1.1" id="Layer_1" xmlns="http://www.w3.org/2000/svg" xmlns:xlink="http://www.w3.org/1999/xlink" x="0px" y="0px"
	 viewBox="0 0 800 400" style="enable-background:new 0 0 800 400;" xml:space="preserve">
<style type="text/css">
	.st0{opacity:0.5;fill:#2395D2;}
	.st1{opacity:0.8;fill:#596163;}
	.st2{opacity:0.9;fill:#596163;}
	.st3{fill:#F9FCFF;}
	.st4{opacity:0.9;}
</style>
<path class="st0" d="M382.3,189.3c-10.9-9.8-27.3-13.2-41.5-12.1c3.7,12.2,5.9,21.8,7,33c0.9,7.5,1.5,15.2,1.7,23.2
	c0.7,0.8-0.2-0.4,1.4,1.1c12.4,11.2,28.7,15.7,44.9,13.9C403.3,227.4,398.7,204.1,382.3,189.3z"/>
<path class="st0" d="M184.8,168c-13.4-1-28.5,2-39,10.7c-17,14.1-22.4,37.3-15.8,58.5c15.2,2.3,30.8-1,43.3-10.4
	C174.2,205.2,178,185.2,184.8,168z"/>
<path class="st0" d="M348,237.9c0,66-25.9,119.6-86.2,119.6s-87-53.5-87-119.6s26.8-119.6,87-119.6S348,171.9,348,237.9z"/>
<path class="st1" d="M261.7,357.5c47.3,0,83.7-31.2,80.9-72.6H180.1C180.1,327.6,214.4,357.5,261.7,357.5z"/>
<path class="st2" d="M355.8,257.9c0.2-8.5,0.9-33.8,0.9-42.6c0-70.6-29.2-98.4-95.5-98.4s-95.2,16.5-95.1,98.4
	c0,12.6,45.2,46.8,69,44.9c0,0-9.9-34.2,1.2-18.2c20.9,30.3,68.1,17.2,68.1,17.2l-13.5-22.6c-0.4-1,0.8-2.4,1.5-1.6
	C307.5,251.1,355.8,257.9,355.8,257.9z"/>
<path class="st1" d="M210.5,133.4c-48.7-5.4-84.2-25.8-69.4-51.7c3.8-6.7,15-25.8,18.9-32.2c-26.8,15.4-54.5,46.2-54.5,71.8
	c0,31.5,30.3,58.2,72.4,68C184.1,166.1,194.8,146.6,210.5,133.4z M172.5,184.8L172.5,184.8L172.5,184.8c0,0.1,0,0.2-0.1,0.3
	C171.2,185.1,170.9,185,172.5,184.8z"/>
<path class="st1" d="M366.7,42.5c3.8,7,15.1,28,18.9,35.3c15,28.7-21.7,51.3-71.3,56.8c15.5,14.4,25.8,36,31.2,61.8
	c43.8-10,75.7-39.9,75.7-75.3C421.2,93.1,393.6,59.4,366.7,42.5z M354.3,190.9c0-0.1,0-0.2-0.1-0.3l0,0l0,0
	C355.8,190.8,355.5,190.9,354.3,190.9z"/>
<polygon class="st3" points="314.3,309.6 314.3,316.1 274.5,316.1 274.5,332.8 267.8,332.8 267.8,309.6 "/>
<polygon class="st3" points="205,309.6 205,316.1 244.9,316.1 244.9,332.8 251.5,332.8 251.5,309.6 "/>
<g>
	<path class="st0" d="M361.2,260.1h24c9.7,0,17.4,2.5,23,7.5c5.6,5,8.4,11.8,8.4,20.4c0,4.4-1.1,8.7-3.2,12.8
		c-2.1,4.1-5.2,7.2-9.3,9.3l16.5,41h-21.8l-16.7-41.4h-0.3V351h-20.6V260.1z M381.9,277.7v21.6c9.1-0.2,13.7-3.4,13.7-9.6
		c0-4.2-1.1-7.2-3.2-9.1C390.3,278.8,386.8,277.8,381.9,277.7z"/>
	<path class="st0" d="M433.1,260.1h20.6V351h-20.6V260.1z"/>
	<path class="st0" d="M521.6,329.6v21.6c-4.4,1.4-8.3,2.1-11.7,2.1c-11.9,0-21.6-4.5-29-13.4c-7.4-9-11.1-20.8-11.1-35.4
		c0-13.6,3.7-24.8,11.2-33.6c7.5-8.8,17-13.2,28.4-13.2c4.4,0,8.5,0.6,12.3,1.8V281c-3.9-1.3-7.7-2-11.2-2c-5.4,0-9.8,2.5-13.3,7.4
		s-5.3,11.1-5.3,18.7c0,8.2,1.8,14.6,5.3,19.4c3.6,4.7,8.3,7.1,14.3,7.1C514.3,331.6,517.7,331,521.6,329.6z"/>
	<path class="st0" d="M534.9,260.1h20.6v33.7h18.3v-33.7h20.6V351h-20.6v-37.8h-18.3V351h-20.6V260.1z"/>
	<path class="st1" d="M614.7,260.1h20.6V351h-20.6V260.1z"/>
	<path class="st1" d="M655.5,260.1h41.7v19.3h-21.1v16.8h18.3v18.9h-18.3v16.5h21.2V351h-41.9V260.1z"/>
</g>
<g class="st4">
</g>
</svg>
