<?xml version="1.0" encoding="utf-8"?>
<!-- Generator: Adobe Illustrator 19.2.0, SVG Export Plug-In . SVG Version: 6.00 Build 0)  -->
<svg version="1.1" id="Layer_1" xmlns="http://www.w3.org/2000/svg" xmlns:xlink="http://www.w3.org/1999/xlink" x="0px" y="0px"
	 viewBox="0 0 800 400" style="enable-background:new 0 0 800 400;" xml:space="preserve">
<style type="text/css">
	.st0{opacity:0.5;fill:#2395D2;}
	.st1{opacity:0.8;fill:#596163;}
	.st2{opacity:0.9;fill:#596163;}
	.st3{fill:#F9FCFF;}
	.st4{opacity:0.5;fill:#0B0D0D;}
	.st5{opacity:0.9;}
</style>
<path class="st0" d="M354.6,169.9c-12-10.8-30-14.5-45.5-13.3c4.1,13.4,6.5,23.9,7.7,36.3c1,8.2,1.6,16.7,1.8,25.5
	c0.7,0.9-0.3-0.4,1.5,1.2c13.6,12.3,31.5,17.2,49.3,15.2C377.6,211.8,372.6,186.1,354.6,169.9z"/>
<path class="st0" d="M137.6,146.5c-14.7-1.1-31.3,2.2-42.9,11.8c-18.6,15.5-24.6,40.9-17.4,64.3c16.7,2.5,33.8-1.1,47.5-11.5
	C126,187.4,130.1,165.4,137.6,146.5z"/>
<path class="st0" d="M316.9,223.3c0,72.5-28.4,131.3-94.6,131.3s-95.6-58.8-95.6-131.3S156,92,222.2,92S316.9,150.8,316.9,223.3z"/>
<path class="st1" d="M222.1,354.6c52,0,92-34.2,88.8-79.7H132.4C132.4,321.9,170.1,354.6,222.1,354.6z"/>
<path class="st2" d="M325.4,245.2c0.2-9.3,1-37.1,1-46.7c0-77.5-32-108.1-104.8-108.1S117,108.6,117.1,198.5
	c0,13.9,49.6,51.4,75.7,49.3c0,0-10.8-37.5,1.3-20c23,33.2,74.7,18.9,74.7,18.9L254,221.9c-0.5-1.1,0.9-2.7,1.7-1.8
	C272.4,237.7,325.4,245.2,325.4,245.2z"/>
<path class="st1" d="M165.8,108.5c-53.4-5.9-92.4-28.3-76.2-56.8c4.2-7.4,16.5-28.4,20.7-35.4C80.9,33.3,50.5,67.1,50.5,95.2
	c0,34.6,33.3,64,79.6,74.7C136.9,144.4,148.6,123.1,165.8,108.5z M124.1,165L124.1,165L124.1,165c0,0.1,0,0.2-0.1,0.3
	C122.7,165.3,122.4,165.2,124.1,165z"/>
<path class="st1" d="M337.4,8.7c4.2,7.7,16.6,30.7,20.7,38.8c16.4,31.6-23.8,56.3-78.3,62.4c17,15.8,28.3,39.5,34.3,67.8
	c48.1-11,83.1-43.8,83.1-82.6C397.3,64.2,366.9,27.2,337.4,8.7z M323.8,171.7c0-0.1-0.1-0.2-0.1-0.3l0,0l0,0
	C325.4,171.5,325.1,171.6,323.8,171.7z"/>
<polygon class="st3" points="279.9,302 279.9,309.2 236.1,309.2 236.1,327.5 228.8,327.5 228.8,302 "/>
<polygon class="st3" points="159.9,302 159.9,309.2 203.6,309.2 203.6,327.5 210.9,327.5 210.9,302 "/>
<g>
	<path class="st4" d="M331.4,247.7h45.8v21.4h-23.2v18.2h20.4v20.7h-20.4v39.5h-22.7V247.7z"/>
	<path class="st4" d="M392.9,247.7h22.7v99.8h-22.7V247.7z"/>
	<path class="st0" d="M580.4,247.7h54.1v22.8h-15.6v77h-23v-77h-15.5V247.7z"/>
	<path class="st0" d="M639,247.7h25.4c5.6,14.4,9.7,25.4,12.3,33.2h0.3c2.5-8,6.6-19,12.1-33.2h26l-26.8,54.7v45.2h-23v-45.2
		L639,247.7z"/>
</g>
<g class="st5">
	<path class="st0" d="M425.8,247.7h21.2c14.7,0,25.8,4.2,33.4,12.5s11.4,20.6,11.4,36.6c0,12.2-1.9,22-5.6,29.5
		c-3.8,7.5-9,12.9-15.8,16.2c-6.8,3.3-14.2,5-22.4,5h-22.2V247.7z M448.4,269v57.3c6.9-0.6,11.7-3,14.6-7.3s4.3-11.3,4.3-21.1
		c0-5.8-0.5-10.7-1.5-14.7c-1-4-2.5-7.1-4.5-9.3c-2-2.2-3.9-3.5-5.8-4C453.7,269.4,451.3,269.1,448.4,269z"/>
	<path class="st0" d="M506.5,247.7h23.3V318c0,3.3,0.9,5.9,2.6,7.8c1.7,1.9,4.1,2.9,7,2.9c3,0,5.4-1,7.2-3.1c1.8-2,2.7-4.9,2.7-8.5
		v-69.5h23.1v65.5c0,8.9-1.2,16.1-3.5,21.5c-2.3,5.4-5.8,9.3-10.4,11.9c-4.6,2.5-10.9,3.8-19.1,3.8c-12.1,0-20.6-3.1-25.5-9.3
		c-4.9-6.2-7.4-16.6-7.4-31.3V247.7z"/>
</g>
</svg>
