<?xml version="1.0" encoding="utf-8"?>
<!-- Generator: Adobe Illustrator 19.2.0, SVG Export Plug-In . SVG Version: 6.00 Build 0)  -->
<svg version="1.1" id="Layer_1" xmlns="http://www.w3.org/2000/svg" xmlns:xlink="http://www.w3.org/1999/xlink" x="0px" y="0px"
	 viewBox="0 0 400 200" style="enable-background:new 0 0 400 200;" xml:space="preserve">
<style type="text/css">
	.st0{opacity:0.5;fill:#2395D2;}
	.st1{opacity:0.8;fill:#596163;}
	.st2{opacity:0.9;fill:#596163;}
	.st3{fill:#F9FCFF;}
	.st4{opacity:0.5;fill:#0B0D0D;}
	.st5{font-family:'TwCenMT-CondensedExtraBold';}
	.st6{font-size:76.5769px;}
	.st7{opacity:0.9;}
</style>
<path class="st0" d="M185.6,87.3c-6-5.4-15-7.2-22.8-6.6c2,6.7,3.3,12,3.8,18.1c0.5,4.1,0.8,8.4,0.9,12.7c0.4,0.4-0.1-0.2,0.8,0.6
	c6.8,6.1,15.8,8.6,24.7,7.6C197.1,108.2,194.6,95.4,185.6,87.3z"/>
<path class="st0" d="M77.2,75.6c-7.4-0.5-15.7,1.1-21.4,5.9c-9.3,7.8-12.3,20.5-8.7,32.1c8.4,1.3,16.9-0.6,23.8-5.7
	C71.3,96,73.4,85,77.2,75.6z"/>
<path class="st0" d="M166.8,114c0,36.3-14.2,65.7-47.3,65.7S71.7,150.3,71.7,114s14.7-65.7,47.8-65.7S166.8,77.7,166.8,114z"/>
<path class="st1" d="M119.4,179.7c26,0,46-17.1,44.4-39.9H74.6C74.6,163.3,93.4,179.7,119.4,179.7z"/>
<path class="st2" d="M171.1,125c0.1-4.7,0.5-18.5,0.5-23.4c0-38.8-16-54-52.4-54s-52.3,9.1-52.2,54c0,6.9,24.8,25.7,37.9,24.6
	c0,0-5.4-18.8,0.6-10c11.5,16.6,37.4,9.4,37.4,9.4l-7.4-12.4c-0.2-0.5,0.4-1.3,0.8-0.9C144.5,121.2,171.1,125,171.1,125z"/>
<path class="st1" d="M91.3,56.6c-26.7-2.9-46.2-14.1-38.1-28.4c2.1-3.7,8.3-14.2,10.4-17.7C48.8,19,33.6,35.9,33.6,50
	c0,17.3,16.6,32,39.8,37.4C76.8,74.6,82.7,63.9,91.3,56.6z M70.4,84.8L70.4,84.8L70.4,84.8c0,0,0,0.1,0,0.1
	C69.7,85,69.6,84.9,70.4,84.8z"/>
<path class="st1" d="M177.1,6.7c2.1,3.9,8.3,15.3,10.4,19.4c8.2,15.8-11.9,28.2-39.2,31.2c8.5,7.9,14.1,19.8,17.2,33.9
	c24.1-5.5,41.6-21.9,41.6-41.3C207,34.4,191.8,16,177.1,6.7z M170.2,88.2c0-0.1,0-0.1,0-0.2l0,0l0,0C171,88.1,170.9,88.2,170.2,88.2
	z"/>
<polygon class="st3" points="148.3,153.3 148.3,156.9 126.4,156.9 126.4,166.1 122.8,166.1 122.8,153.3 "/>
<polygon class="st3" points="88.3,153.3 88.3,156.9 110.2,156.9 110.2,166.1 113.8,166.1 113.8,153.3 "/>
<text transform="matrix(1 0 0 1 168.707 176.1152)"><tspan x="0" y="0" class="st4 st5 st6">FI    </tspan><tspan x="128.2" y="0" class="st0 st5 st6">TY</tspan></text>
<text transform="matrix(1 0 0 1 215.8965 176.1152)" class="st7"><tspan x="0" y="0" class="st0 st5 st6">DU</tspan></text>
</svg>
