<?xml version="1.0" encoding="utf-8"?>
<!-- Generator: Adobe Illustrator 19.2.0, SVG Export Plug-In . SVG Version: 6.00 Build 0)  -->
<svg version="1.1" id="Layer_1" xmlns="http://www.w3.org/2000/svg" xmlns:xlink="http://www.w3.org/1999/xlink" x="0px" y="0px"
	 viewBox="0 0 960 560" style="enable-background:new 0 0 960 560;" xml:space="preserve">
<style type="text/css">
	.st0{opacity:0.5;fill:#2395D2;}
	.st1{opacity:0.8;fill:#596163;}
	.st2{opacity:0.9;fill:#596163;}
	.st3{fill:#F9FCFF;}
	.st4{opacity:0.5;fill:#0B0D0D;}
	.st5{font-family:'TwCenMT-CondensedExtraBold';}
	.st6{font-size:60px;}
	.st7{opacity:0.9;}
</style>
<path class="st0" d="M452,268.4c-4.7-4.2-11.7-5.7-17.8-5.2c1.6,5.2,2.5,9.4,3,14.2c0.4,3.2,0.6,6.6,0.7,10c0.3,0.3-0.1-0.2,0.6,0.5
	c5.3,4.8,12.4,6.7,19.3,6C461,284.8,459.1,274.8,452,268.4z"/>
<path class="st0" d="M367,259.2c-5.8-0.4-12.3,0.8-16.8,4.6c-7.3,6.1-9.6,16-6.8,25.2c6.6,1,13.2-0.4,18.6-4.5
	C362.5,275.3,364.1,266.6,367,259.2z"/>
<path class="st0" d="M437.3,289.3c0,28.4-11.1,51.4-37.1,51.4c-25.9,0-37.5-23-37.5-51.4c0-28.4,11.5-51.4,37.5-51.4
	C426.1,237.9,437.3,260.9,437.3,289.3z"/>
<path class="st1" d="M400.1,340.8c20.4,0,36-13.4,34.8-31.2H365C365,327.9,379.8,340.8,400.1,340.8z"/>
<path class="st2" d="M440.6,297.9c0.1-3.7,0.4-14.5,0.4-18.3c0-30.4-12.5-42.3-41.1-42.3s-40.9,7.1-40.9,42.3
	c0,5.4,19.4,20.1,29.7,19.3c0,0-4.2-14.7,0.5-7.8c9,13,29.3,7.4,29.3,7.4l-5.8-9.7c-0.2-0.4,0.3-1,0.6-0.7
	C419.8,295,440.6,297.9,440.6,297.9z"/>
<path class="st1" d="M378.1,244.4c-20.9-2.3-36.2-11.1-29.9-22.2c1.6-2.9,6.5-11.1,8.1-13.9c-11.6,6.6-23.5,19.9-23.5,30.9
	c0,13.6,13,25.1,31.2,29.3C366.8,258.4,371.4,250.1,378.1,244.4z M361.7,266.5L361.7,266.5L361.7,266.5c0,0,0,0.1,0,0.1
	C361.2,266.6,361.1,266.5,361.7,266.5z"/>
<path class="st1" d="M445.3,205.2c1.7,3,6.5,12,8.1,15.2c6.4,12.4-9.3,22.1-30.7,24.4c6.7,6.2,11.1,15.5,13.4,26.6
	c18.9-4.3,32.6-17.2,32.6-32.4C468.8,227,456.9,212.5,445.3,205.2z M440,269.1c0,0,0-0.1,0-0.1l0,0l0,0
	C440.6,269,440.5,269.1,440,269.1z"/>
<polygon class="st3" points="422.8,320.2 422.8,323 405.6,323 405.6,330.2 402.8,330.2 402.8,320.2 "/>
<polygon class="st3" points="375.8,320.2 375.8,323 392.9,323 392.9,330.2 395.8,330.2 395.8,320.2 "/>
<text transform="matrix(1 0 0 1 438.7755 338)"><tspan x="0" y="0" class="st4 st5 st6">FI    </tspan><tspan x="100.5" y="0" class="st0 st5 st6">TY</tspan></text>
<text transform="matrix(1 0 0 1 475.7497 338)" class="st7"><tspan x="0" y="0" class="st0 st5 st6">DU</tspan></text>
</svg>
